<svg width="14" height="8" viewBox="0 0 14 8" fill="none" xmlns="http://www.w3.org/2000/svg">
<path d="M7 6.41872L0.894621 0.477745C0.845419 0.428832 0.787005 0.390163 0.72276 0.363974C0.658515 0.337785 0.589714 0.324597 0.520338 0.325173C0.450963 0.325749 0.38239 0.340079 0.318589 0.367331C0.254788 0.394584 0.197025 0.434218 0.148642 0.483942C0.10026 0.533666 0.0622191 0.592491 0.0367211 0.657013C0.0112231 0.721536 -0.00122586 0.790475 9.47782e-05 0.859841C0.00141542 0.929206 0.0164794 0.997621 0.044415 1.06113C0.0723505 1.12463 0.112603 1.18196 0.162843 1.22981L6.63411 7.52618C6.73206 7.62148 6.86334 7.6748 7 7.6748C7.13666 7.6748 7.26793 7.62148 7.36589 7.52618L13.8372 1.22981C13.8874 1.18196 13.9276 1.12463 13.9556 1.06113C13.9835 0.99762 13.9986 0.929206 13.9999 0.85984C14.0012 0.790475 13.9888 0.721535 13.9633 0.657013C13.9378 0.59249 13.8997 0.533666 13.8514 0.483941C13.803 0.434218 13.7452 0.394583 13.6814 0.36733C13.6176 0.340078 13.549 0.325749 13.4797 0.325172C13.4103 0.324596 13.3415 0.337785 13.2772 0.363974C13.213 0.390162 13.1546 0.428832 13.1054 0.477745L7 6.41872Z" fill="#686868"/>
</svg>
