<svg width="100" height="100" viewBox="0 0 100 100" fill="none" xmlns="http://www.w3.org/2000/svg">
<path d="M20.7813 12.0001C20.5399 12.0572 20.3282 12.202 20.1876 12.4064L7.18756 30.4064C7.06347 30.5793 6.99778 30.7873 7.00006 31.0001V87.0001C7.00008 87.2653 7.10545 87.5197 7.29298 87.7072C7.48051 87.8947 7.73485 88.0001 8.00006 88.0001H92.0001C92.2653 88.0001 92.5196 87.8947 92.7071 87.7072C92.8947 87.5197 93 87.2653 93.0001 87.0001V31.0001C93.0023 30.7873 92.9366 30.5793 92.8126 30.4064L79.8126 12.4064C79.7188 12.2793 79.5963 12.1763 79.4551 12.1057C79.3139 12.0351 79.1579 11.9989 79.0001 12.0001H21.0001C20.9274 11.9921 20.854 11.9921 20.7813 12.0001ZM22.0001 14.0001H78.0001V30.0001H62.0001C61.7348 30.0002 61.4805 30.1055 61.293 30.2931C61.1054 30.4806 61.0001 30.7349 61.0001 31.0001V37.0001C61.0011 38.6787 59.6794 40.0001 58.0001 40.0001H42.0001C40.3208 40.0001 39.0001 38.6794 39.0001 37.0001V31.0001C39 30.7349 38.8947 30.4806 38.7071 30.2931C38.5196 30.1055 38.2653 30.0002 38.0001 30.0001H22.0001V14.0001ZM20.0001 16.0626V30.0001H9.93756L20.0001 16.0626ZM80.0001 16.0626L90.0626 30.0001H80.0001V16.0626ZM9.00006 32.0001H37.0001V37.0001C37.0001 39.7528 39.2474 42.0001 42.0001 42.0001H58.0001C60.7528 42.0001 63.0017 39.7536 63.0001 37.0001V32.0001H91.0001V86.0001H9.00006V32.0001Z" fill="black"/>
</svg>
