<svg width="100" height="95" viewBox="0 0 100 95" fill="none" xmlns="http://www.w3.org/2000/svg">
<path d="M97.82 21.71C96.53 19.82 94.56 18.78 92.27 18.78H77.55C77.61 18.22 77.63 17.66 77.63 17.09C77.63 7.67 69.96 0 60.54 0C51.11 0 43.44 7.67 43.44 17.09C43.44 17.66 43.47 18.23 43.52 18.78H24.69L22.36 12.8C22.13 12.21 21.56 11.82 20.92 11.82H1.55C0.7 11.82 0 12.51 0 13.37C0 14.22 0.69 14.92 1.55 14.92H19.85L22.15 20.83C22.17 20.88 22.18 20.92 22.2 20.97L36.26 57.02C31.45 58.03 27.83 62.3 27.83 67.4C27.83 73.25 32.59 78.01 38.43 78.01H75.81C76.66 78.01 77.36 77.32 77.36 76.46C77.36 75.6 76.67 74.91 75.81 74.91H38.45C34.31 74.91 30.94 71.54 30.94 67.4C30.94 63.26 34.31 59.89 38.45 59.89H38.46H81.49C84.33 59.89 86.73 58.25 87.75 55.61L98.53 27.96C99.36 25.8 99.11 23.59 97.82 21.71ZM60.55 3.08C68.27 3.08 74.55 9.36 74.55 17.08C74.55 24.8 68.27 31.08 60.55 31.08C52.83 31.08 46.55 24.8 46.55 17.08C46.54 9.36 52.82 3.08 60.55 3.08ZM95.65 26.82L84.87 54.47C84.32 55.89 83.02 56.78 81.49 56.78H39.5L25.89 21.87H44.13C45.53 26.67 48.98 30.6 53.46 32.64V46.42C53.46 47.27 54.15 47.97 55.01 47.97C55.86 47.97 56.56 47.28 56.56 46.42V33.7C57.84 34.01 59.18 34.17 60.55 34.17C61.92 34.17 63.26 34.01 64.53 33.7V46.42C64.53 47.27 65.22 47.97 66.08 47.97C66.94 47.97 67.63 47.28 67.63 46.42V32.64C72.11 30.59 75.56 26.66 76.96 21.87H92.27C93.53 21.87 94.56 22.42 95.27 23.46C95.97 24.48 96.11 25.65 95.65 26.82ZM70.6 81.1C66.86 81.1 63.83 84.14 63.83 87.87C63.83 91.6 66.87 94.64 70.6 94.64C74.34 94.64 77.37 91.6 77.37 87.87C77.37 84.14 74.33 81.1 70.6 81.1ZM70.6 91.56C68.57 91.56 66.92 89.91 66.92 87.88C66.92 85.85 68.57 84.2 70.6 84.2C72.63 84.2 74.28 85.85 74.28 87.88C74.28 89.91 72.63 91.56 70.6 91.56ZM42.17 81.1C38.43 81.1 35.4 84.14 35.4 87.87C35.4 91.6 38.44 94.64 42.17 94.64C45.9 94.64 48.94 91.6 48.94 87.87C48.94 84.14 45.91 81.1 42.17 81.1ZM42.17 91.56C40.14 91.56 38.49 89.91 38.49 87.88C38.49 85.85 40.14 84.2 42.17 84.2C44.2 84.2 45.85 85.85 45.85 87.88C45.85 89.91 44.21 91.56 42.17 91.56ZM53.79 19.44C53.19 18.84 53.19 17.86 53.79 17.25C54.39 16.65 55.37 16.65 55.98 17.25L59.01 20.28V10.15C59.01 9.3 59.7 8.6 60.56 8.6C61.42 8.6 62.11 9.29 62.11 10.15V20.27L65.13 17.25C65.73 16.65 66.71 16.65 67.32 17.25C67.92 17.85 67.92 18.83 67.32 19.44L61.66 25.1C61.36 25.4 60.96 25.55 60.57 25.55C60.17 25.55 59.78 25.4 59.48 25.1L53.79 19.44ZM45.5 32.22V46.42C45.5 47.27 44.81 47.97 43.95 47.97C43.1 47.97 42.4 47.28 42.4 46.42V32.22C42.4 31.37 43.09 30.67 43.95 30.67C44.8 30.68 45.5 31.37 45.5 32.22ZM78.68 32.22V46.42C78.68 47.27 77.99 47.97 77.13 47.97C76.27 47.97 75.58 47.28 75.58 46.42V32.22C75.58 31.37 76.27 30.67 77.13 30.67C77.99 30.67 78.68 31.37 78.68 32.22Z" fill="white"/>
</svg>
