<svg width="22" height="22" viewBox="0 0 22 22" fill="none" xmlns="http://www.w3.org/2000/svg">
<path d="M10.6612 13.7709L7.58465 10.6935L8.19944 10.0683L10.2264 12.0953V4.57355H11.096V12.0953L13.122 10.0692L13.7377 10.6935L10.6612 13.7709ZM5.97857 16.7475C5.57857 16.7475 5.24465 16.6135 4.97683 16.3457C4.709 16.0779 4.5748 15.7437 4.57422 15.3431V13.2362H5.44378V15.3431C5.44378 15.4764 5.49944 15.5991 5.61074 15.7109C5.72204 15.8228 5.84465 15.8785 5.97857 15.8779H15.3438C15.4771 15.8779 15.5997 15.8222 15.7116 15.7109C15.8235 15.5996 15.8791 15.477 15.8786 15.3431V13.2362H16.7481V15.3431C16.7481 15.7431 16.6142 16.077 16.3464 16.3449C16.0786 16.6127 15.7444 16.7469 15.3438 16.7475H5.97857Z" fill="#3D3D3D"/>
</svg>
