<svg class="cc-icon cc-icon--silhouette" aria-hidden="true" focusable="false" role="presentation" xmlns="http://www.w3.org/2000/svg" viewBox="0 0 16 16" style="width: 36px;height: 36px;"><path d="M8 1.5a3.5 3.5 0 100 7 3.5 3.5 0 000-7zM5.5 5a2.5 2.5 0 115 0 2.5 2.5 0 01-5 0zM8 9.5c-1.87 0-3.52.17-4.7.98-1.21.85-1.8 2.3-1.8 4.52v.5h13V15c0-2.22-.59-3.67-1.8-4.52-1.18-.81-2.83-.98-4.7-.98zm4.12 1.8c.77.54 1.29 1.46 1.37 3.2H2.5c.08-1.74.6-2.66 1.37-3.2.89-.61 2.24-.8 4.12-.8s3.23.19 4.12.8z"></path></svg>