<svg width="44" height="44" viewBox="0 0 44 44" fill="none" xmlns="http://www.w3.org/2000/svg">
<rect width="44" height="44" rx="4" fill="#F2F2F2"/>
<g clip-path="url(#clip0_2081_1556)">
<path d="M11.6406 29.2852L20.8633 34.5117C21.5195 34.8867 22.1406 34.8867 22.8086 34.5117L32.0195 29.2852C33.0977 28.6758 33.6602 28.0547 33.6602 26.3789V17.0977C33.6602 15.8789 33.2148 15.1172 32.2305 14.5547L23.9336 9.84375C22.5156 9.03516 21.1445 9.03516 19.7266 9.84375L11.4414 14.5547C10.4453 15.1172 10 15.8789 10 17.0977V26.3789C10 28.0547 10.5742 28.6758 11.6406 29.2852ZM12.6953 27.7383C12.0156 27.3633 11.7812 26.9648 11.7812 26.3203V17.4727L20.9102 22.6875V32.4141L12.6953 27.7383ZM30.9766 27.7383L22.75 32.4141V22.6875L31.8789 17.4727V26.3203C31.8789 26.9648 31.6445 27.3633 30.9766 27.7383ZM21.8359 21.0469L12.7891 15.9258L16.4102 13.8516L25.457 18.9961L21.8359 21.0469ZM27.3438 17.9297L18.2617 12.7969L20.5117 11.5195C21.4141 11.0039 22.2461 10.9922 23.1602 11.5195L30.8828 15.9258L27.3438 17.9297Z" fill="#EE4B2B"/>
</g>
<defs>
<clipPath id="clip0_2081_1556">
<rect width="24.0117" height="25.793" fill="white" transform="translate(10 9)"/>
</clipPath>
</defs>
</svg>
