<svg width="44" height="44" viewBox="0 0 44 44" fill="none" xmlns="http://www.w3.org/2000/svg">
<rect width="44" height="44" rx="4" fill="#F2F2F2"/>
<g clip-path="url(#clip0_2081_1537)">
<path d="M22.8194 34.0962L34.2451 22.647C35.124 21.7681 35.1826 21.2642 35.1826 20.0337V15.5806C35.1826 14.3384 34.8897 13.9517 33.999 13.061L31.3037 10.3657C30.4248 9.48682 30.0381 9.18213 28.7959 9.18213H24.3311C23.1006 9.18213 22.6084 9.24073 21.7295 10.1196L10.2686 21.5571C8.59279 23.2329 8.55763 24.9673 10.2803 26.6782L17.6983 34.0845C19.4209 35.7954 21.1436 35.772 22.8194 34.0962ZM21.5537 32.6782C20.71 33.522 19.8194 33.5337 18.9639 32.6665L11.6865 25.4009C10.8311 24.5454 10.8428 23.6431 11.6748 22.811L23.0537 11.4556C23.2881 11.2212 23.5342 11.0688 23.9326 11.0688H28.8662C29.2295 11.0688 29.4756 11.2095 29.7217 11.4556L32.9209 14.6431C33.167 14.8892 33.2959 15.1353 33.2959 15.4985V20.4439C33.2959 20.8306 33.1553 21.0767 32.9209 21.311L21.5537 32.6782ZM27.4248 18.5571C28.3389 18.5571 29.0303 17.8423 29.0303 16.9517C29.0303 16.0493 28.3389 15.3462 27.4248 15.3462C26.499 15.3462 25.8194 16.0493 25.8194 16.9517C25.8194 17.8423 26.499 18.5571 27.4248 18.5571Z" fill="#EE4B2B"/>
</g>
<defs>
<clipPath id="clip0_2081_1537">
<rect width="26.5371" height="27.3604" fill="white" transform="translate(9 8)"/>
</clipPath>
</defs>
</svg>
