<svg width="44" height="44" viewBox="0 0 44 44" fill="none" xmlns="http://www.w3.org/2000/svg">
<rect width="44" height="44" rx="4" fill="#F2F2F2"/>
<g clip-path="url(#clip0_4018_434)">
<path d="M22.8194 34.0967L34.2451 22.6475C35.124 21.7686 35.1826 21.2647 35.1826 20.0342V15.5811C35.1826 14.3389 34.8897 13.9521 33.999 13.0615L31.3037 10.3662C30.4248 9.48731 30.0381 9.18262 28.7959 9.18262H24.3311C23.1006 9.18262 22.6084 9.24122 21.7295 10.1201L10.2686 21.5576C8.59279 23.2334 8.55763 24.9678 10.2803 26.6787L17.6983 34.085C19.4209 35.7959 21.1436 35.7725 22.8194 34.0967ZM21.5537 32.6787C20.71 33.5225 19.8194 33.5342 18.9639 32.667L11.6865 25.4014C10.8311 24.5459 10.8428 23.6436 11.6748 22.8115L23.0537 11.4561C23.2881 11.2217 23.5342 11.0693 23.9326 11.0693H28.8662C29.2295 11.0693 29.4756 11.21 29.7217 11.4561L32.9209 14.6436C33.167 14.8896 33.2959 15.1357 33.2959 15.499V20.4444C33.2959 20.8311 33.1553 21.0772 32.9209 21.3115L21.5537 32.6787ZM27.4248 18.5576C28.3389 18.5576 29.0303 17.8428 29.0303 16.9521C29.0303 16.0498 28.3389 15.3467 27.4248 15.3467C26.499 15.3467 25.8194 16.0498 25.8194 16.9521C25.8194 17.8428 26.499 18.5576 27.4248 18.5576Z" fill="#EE4B2B"/>
</g>
<defs>
<clipPath id="clip0_4018_434">
<rect width="26.5371" height="27.3604" fill="white" transform="translate(9 8)"/>
</clipPath>
</defs>
</svg>
