<svg width="44" height="44" viewBox="0 0 44 44" fill="none" xmlns="http://www.w3.org/2000/svg">
<rect width="44" height="44" rx="4" fill="#F2F2F2"/>
<path d="M11.5589 18.5816C11.8674 18.5816 12.1176 18.331 12.1176 18.0223V15.5363C12.1176 15.2275 11.8673 14.9771 11.5589 14.9771C11.2504 14.9771 11 15.2275 11 15.5363V18.0223C11 18.3311 11.2503 18.5816 11.5588 18.5816H11.5589Z" fill="#EE4B2B"/>
<path d="M11.5589 13.6102C11.8674 13.6102 12.1176 13.3596 12.1176 13.0509V12.1187H13.049C13.3576 12.1187 13.6078 11.8681 13.6078 11.5594C13.6078 11.2507 13.3576 11 13.049 11H11.5589C11.2503 11 11 11.2506 11 11.5593V13.0508C11 13.3596 11.2503 13.6101 11.5588 13.6101L11.5589 13.6102Z" fill="#EE4B2B"/>
<path d="M15.6037 12.1187H18.1584C18.4669 12.1187 18.7172 11.8681 18.7172 11.5594C18.7172 11.2507 18.4669 11 18.1584 11H15.6037C15.2952 11 15.0449 11.2506 15.0449 11.5593C15.0449 11.868 15.2953 12.1186 15.6037 12.1186V12.1187Z" fill="#EE4B2B"/>
<path d="M20.7126 12.1187H23.2673C23.5758 12.1187 23.8261 11.8681 23.8261 11.5594C23.8261 11.2507 23.5758 11 23.2673 11H20.7126C20.4041 11 20.1538 11.2506 20.1538 11.5593C20.1538 11.868 20.4042 12.1186 20.7126 12.1186V12.1187Z" fill="#EE4B2B"/>
<path d="M25.822 12.1187H28.3767C28.6852 12.1187 28.9354 11.8681 28.9354 11.5594C28.9354 11.2507 28.6852 11 28.3767 11H25.822C25.5134 11 25.2632 11.2506 25.2632 11.5593C25.2632 11.868 25.5135 12.1186 25.822 12.1186V12.1187Z" fill="#EE4B2B"/>
<path d="M32.421 11H30.9308C30.6223 11 30.3721 11.2506 30.3721 11.5593C30.3721 11.868 30.6224 12.1186 30.9308 12.1186H31.8622V13.0508C31.8622 13.3596 32.1126 13.6101 32.421 13.6101C32.7294 13.6101 32.9798 13.3595 32.9798 13.0508V11.5593C32.9798 11.2505 32.7294 11 32.421 11Z" fill="#EE4B2B"/>
<path d="M32.4211 15.0483C32.1126 15.0483 31.8623 15.2989 31.8623 15.6076V18.1646C31.8623 18.4735 32.1127 18.7239 32.4211 18.7239C32.7295 18.7239 32.9799 18.4734 32.9799 18.1646V15.6076C32.9799 15.2988 32.7295 15.0483 32.4211 15.0483Z" fill="#EE4B2B"/>
<path d="M32.4211 20.1621C32.1126 20.1621 31.8623 20.4127 31.8623 20.7214V23.2784C31.8623 23.5872 32.1127 23.8377 32.4211 23.8377C32.7295 23.8377 32.9799 23.5871 32.9799 23.2784V20.7214C32.9799 20.4126 32.7295 20.1621 32.4211 20.1621Z" fill="#EE4B2B"/>
<path d="M32.4211 25.2764C32.1126 25.2764 31.8623 25.5269 31.8623 25.8357V28.3927C31.8623 28.7015 32.1127 28.952 32.4211 28.952C32.7295 28.952 32.9799 28.7014 32.9799 28.3927V25.8357C32.9799 25.5268 32.7295 25.2764 32.4211 25.2764Z" fill="#EE4B2B"/>
<path d="M32.421 30.3896C32.1125 30.3896 31.8622 30.6402 31.8622 30.9489V31.8812H30.9308C30.6223 31.8812 30.3721 32.1317 30.3721 32.4405C30.3721 32.7492 30.6224 32.9997 30.9308 32.9997H32.421C32.7295 32.9997 32.9798 32.7492 32.9798 32.4405V30.9489C32.9798 30.6401 32.7294 30.3896 32.421 30.3896Z" fill="#EE4B2B"/>
<path d="M28.4473 31.8813H25.9636C25.655 31.8813 25.4048 32.1319 25.4048 32.4406C25.4048 32.7493 25.6551 32.9999 25.9636 32.9999H28.4473C28.7558 32.9999 29.0061 32.7493 29.0061 32.4406C29.0061 32.1319 28.7557 31.8813 28.4473 31.8813Z" fill="#EE4B2B"/>
<path d="M23.4802 31.8814H22.5489V22C22.5489 21.6912 22.2985 21.4407 21.9901 21.4407H12.1177V20.5085C12.1177 20.1997 11.8673 19.9492 11.5589 19.9492C11.2505 19.9492 11 20.1998 11 20.5085V32.4407C10.997 32.7433 11.2566 33.0031 11.5588 33H23.4801C23.7887 33 24.0389 32.7494 24.0389 32.4407C24.0389 32.132 23.7886 31.8814 23.4801 31.8814H23.4802ZM12.1177 27.866L13.4885 26.4936L15.0994 28.106L12.1177 31.0904V27.8659V27.866ZM16.7744 28.0113L20.6411 31.8814H12.9079L16.7745 28.0113H16.7744ZM21.4312 31.0904L17.1696 26.8249C16.9513 26.6064 16.5976 26.6064 16.3793 26.8249L15.8896 27.3151L13.8836 25.3072C13.674 25.0975 13.3029 25.0975 13.0933 25.3072L12.1176 26.2841V22.5594H21.4311V31.0905L21.4312 31.0904Z" fill="#EE4B2B"/>
</svg>
