<svg width="44" height="44" viewBox="0 0 44 44" fill="none" xmlns="http://www.w3.org/2000/svg">
<rect width="44" height="44" rx="4" fill="#F2F2F2"/>
<g clip-path="url(#clip0_4018_462)">
<path d="M15.2539 13.0156C15.8047 13.0156 16.2617 12.5586 16.2617 12.0078C16.2617 11.457 15.8047 11 15.2539 11C14.7031 11 14.2461 11.457 14.2461 12.0078C14.2461 12.5586 14.7031 13.0156 15.2539 13.0156ZM18.5234 13.0156C19.0742 13.0156 19.5312 12.5586 19.5312 12.0078C19.5312 11.457 19.0742 11 18.5234 11C17.9727 11 17.5156 11.457 17.5156 12.0078C17.5156 12.5586 17.9727 13.0156 18.5234 13.0156ZM21.8047 13.0156C22.3555 13.0156 22.8125 12.5586 22.8125 12.0078C22.8125 11.457 22.3555 11 21.8047 11C21.2539 11 20.7969 11.457 20.7969 12.0078C20.7969 12.5586 21.2539 13.0156 21.8047 13.0156ZM25.0742 13.0156C25.625 13.0156 26.082 12.5586 26.082 12.0078C26.082 11.457 25.625 11 25.0742 11C24.5234 11 24.0664 11.457 24.0664 12.0078C24.0664 12.5586 24.5234 13.0156 25.0742 13.0156ZM28.3555 13.0156C28.9062 13.0156 29.3633 12.5586 29.3633 12.0078C29.3633 11.457 28.9062 11 28.3555 11C27.8047 11 27.3477 11.457 27.3477 12.0078C27.3477 12.5586 27.8047 13.0156 28.3555 13.0156ZM31.625 13.0156C32.1758 13.0156 32.6328 12.5586 32.6328 12.0078C32.6328 11.457 32.1758 11 31.625 11C31.0742 11 30.6172 11.457 30.6172 12.0078C30.6172 12.5586 31.0742 13.0156 31.625 13.0156ZM31.625 16.2852C32.1758 16.2852 32.6328 15.8281 32.6328 15.2773C32.6328 14.7266 32.1758 14.2695 31.625 14.2695C31.0742 14.2695 30.6172 14.7266 30.6172 15.2773C30.6172 15.8281 31.0742 16.2852 31.625 16.2852ZM31.625 19.5664C32.1758 19.5664 32.6328 19.1094 32.6328 18.5586C32.6328 18.0078 32.1758 17.5508 31.625 17.5508C31.0742 17.5508 30.6172 18.0078 30.6172 18.5586C30.6172 19.1094 31.0742 19.5664 31.625 19.5664ZM31.625 22.8359C32.1758 22.8359 32.6328 22.3789 32.6328 21.8281C32.6328 21.2773 32.1758 20.8203 31.625 20.8203C31.0742 20.8203 30.6172 21.2773 30.6172 21.8281C30.6172 22.3789 31.0742 22.8359 31.625 22.8359ZM31.625 26.1172C32.1758 26.1172 32.6328 25.6602 32.6328 25.1094C32.6328 24.5586 32.1758 24.1016 31.625 24.1016C31.0742 24.1016 30.6172 24.5586 30.6172 25.1094C30.6172 25.6602 31.0742 26.1172 31.625 26.1172ZM31.625 29.3867C32.1758 29.3867 32.6328 28.9297 32.6328 28.3789C32.6328 27.8281 32.1758 27.3711 31.625 27.3711C31.0742 27.3711 30.6172 27.8281 30.6172 28.3789C30.6172 28.9297 31.0742 29.3867 31.625 29.3867ZM11.9375 32.6562H31.6953C32.2227 32.6562 32.6328 32.2461 32.6328 31.7188C32.6328 31.1914 32.2227 30.7812 31.6953 30.7812H13.2148C12.9688 30.7812 12.875 30.6875 12.875 30.4414V11.9258C12.875 11.4102 12.4648 11 11.9258 11C11.4102 11 11 11.4102 11 11.9258V31.7188C11 32.2812 11.375 32.6562 11.9375 32.6562Z" fill="#EE4B2B"/>
<path d="M15.4181 27.3944C15.3009 27.8983 15.7111 28.2733 16.215 28.1679L19.9884 27.371C20.5275 27.2655 20.7267 26.7265 20.3634 26.3632L19.297 25.2968L25.3322 19.3436L26.3752 20.41C26.7502 20.7733 27.3126 20.5741 27.4181 20.035L28.2268 16.2499C28.344 15.7577 27.922 15.371 27.4181 15.4764L23.6564 16.2733C23.1057 16.3788 22.9182 16.9179 23.2814 17.2811L24.3479 18.3475L18.3009 24.3007L17.2697 23.2343C16.8947 22.871 16.3322 23.0819 16.2267 23.6093L15.4181 27.3944Z" fill="#EE4B2B"/>
</g>
<defs>
<clipPath id="clip0_4018_462">
<rect width="21.9844" height="21.7148" fill="white" transform="translate(11 11)"/>
</clipPath>
</defs>
</svg>
