<svg width="56" height="54" viewBox="0 0 56 54" fill="none" xmlns="http://www.w3.org/2000/svg">
<path d="M25.6286 45.2962C24.1073 45.2962 22.5794 45.2962 21.0581 45.2962C17.9245 45.2962 14.7844 45.2962 11.6507 45.2962C9.05019 45.2962 6.45616 45.2962 3.85563 45.2962C3.43305 45.2962 3.00396 45.2702 2.58137 45.2962C2.34083 45.3092 2.65939 45.3481 2.53586 45.3027C2.47085 45.2767 2.39934 45.2702 2.32782 45.2507C2.54887 45.3221 2.13278 45.1209 2.2173 45.1858C2.30832 45.2572 1.99626 44.9066 2.12628 45.1014C2.09378 45.056 2.06777 45.004 2.04176 44.9586C1.93774 44.7963 2.04176 45.056 2.01576 44.8807C2.01576 44.8807 1.97675 44.6145 1.98325 44.7573C1.99625 44.9586 1.99625 44.5431 1.98975 44.7119C1.98975 44.7119 1.98975 44.7119 1.98975 44.7054C1.98975 44.6989 1.98975 44.6859 1.98975 44.6794C1.98975 44.5691 1.98975 44.4587 1.98975 44.3483C1.98975 42.8681 1.98975 41.3814 1.98975 39.9012C1.98975 37.233 1.98975 34.5582 1.98975 31.89C1.98975 28.6699 1.98975 25.4498 1.98975 22.2362C1.98975 19.107 1.98975 15.9778 1.98975 12.8486C1.98975 10.4466 1.98975 8.038 1.98975 5.63592C1.98975 4.61666 2.04176 3.57793 1.98975 2.55867C1.98975 2.55218 1.98975 2.55217 1.98975 2.54568C1.98975 2.49375 2.00276 2.3639 1.97675 2.53919C1.98325 2.48076 2.00276 2.42883 2.01576 2.3704C2.04176 2.21459 2.02876 2.31197 2.00926 2.3639C2.02226 2.33144 2.17179 2.09124 2.10678 2.18213C2.03526 2.27302 2.38633 1.96139 2.19129 2.09124C2.2368 2.05877 2.28881 2.03281 2.33432 2.00684C2.54237 1.877 2.2303 2.02631 2.37333 1.99385C2.44485 1.97438 2.50986 1.9549 2.58137 1.94192C2.52936 1.94841 2.40584 1.94841 2.58788 1.9549C2.58788 1.9549 2.58788 1.9549 2.59438 1.9549C2.67239 1.9549 2.74391 1.9549 2.82192 1.9549C3.30302 1.9549 3.77762 1.9549 4.25872 1.9549C6.26762 1.9549 8.27003 1.9549 10.2789 1.9549C13.2045 1.9549 16.1301 1.9549 19.0557 1.9549C22.3259 1.9549 25.5896 1.9549 28.8597 1.9549C31.8893 1.9549 34.9255 1.9549 37.9551 1.9549C40.172 1.9549 42.3955 1.9549 44.6124 1.9549C45.2366 1.9549 45.8607 1.9549 46.4848 1.9549C46.6473 1.9549 46.8034 1.9549 46.9659 1.9549C47.0049 1.9549 47.0439 1.9549 47.0764 1.9549C47.0829 1.9549 47.0894 1.9549 47.0959 1.9549C47.0959 1.9549 47.0959 1.9549 47.1024 1.9549C46.9334 1.96139 47.356 1.96139 47.1479 1.94841C47.0309 1.94192 47.278 1.98087 47.3105 1.99385C47.447 2.03281 47.1414 1.877 47.3495 2.00684C47.395 2.0393 47.447 2.06527 47.4925 2.09124C47.2975 1.96139 47.6485 2.27302 47.577 2.18213C47.512 2.09124 47.7071 2.51322 47.642 2.29249C47.6615 2.35741 47.6746 2.43532 47.6941 2.50024C47.7396 2.62359 47.7006 2.30547 47.6876 2.54568C47.6876 2.57814 47.6876 2.6106 47.6876 2.63657C47.6876 2.8638 47.6876 3.09102 47.6876 3.31824C47.6876 4.30504 47.6876 5.29184 47.6876 6.27864C47.6876 9.3559 47.6876 12.4396 47.6876 15.5169C47.6876 18.1397 47.6876 20.7625 47.6876 23.3788C47.6876 23.7943 47.6876 24.2033 47.6876 24.6188C47.6876 25.1252 48.1361 25.6186 48.6628 25.5926C49.1894 25.5667 49.6379 25.1642 49.6379 24.6188C49.6379 23.0153 49.6379 21.4117 49.6379 19.8147C49.6379 16.6206 49.6379 13.4264 49.6379 10.2258C49.6379 7.85622 49.6379 5.4931 49.6379 3.12348C49.6379 2.9417 49.6445 2.75343 49.6379 2.57165C49.6184 1.46799 48.9553 0.507163 47.9086 0.137114C47.46 -0.0186969 46.9919 0.000779012 46.5238 0.000779012C44.918 0.000779012 43.3187 0.000779012 41.7128 0.000779012C38.9758 0.000779012 36.2452 0.000779012 33.5082 0.000779012C30.238 0.000779012 26.9743 0.000779012 23.7042 0.000779012C20.512 0.000779012 17.3264 0.000779012 14.1342 0.000779012C11.6052 0.000779012 9.0827 0.000779012 6.55368 0.000779012C5.27942 0.000779012 4.01166 0.000779012 2.73741 0.000779012C1.27461 0.000779012 0.0783648 1.04601 0.0458582 2.54568C0.0393569 2.83783 0.0458582 3.12997 0.0458582 3.42212C0.0458582 5.22043 0.0458582 7.02523 0.0458582 8.82355C0.0458582 11.6931 0.0458582 14.5691 0.0458582 17.4386C0.0458582 20.7366 0.0458582 24.0345 0.0458582 27.326C0.0458582 30.3773 0.0458582 33.4221 0.0458582 36.4734C0.0458582 38.6028 0.0458582 40.7387 0.0458582 42.8681C0.0458582 43.3875 0.0458582 43.9069 0.0458582 44.4327C0.0458582 44.5171 0.0458582 44.608 0.0458582 44.6924C0.0718635 45.8675 0.884529 46.9517 2.06777 47.1789C2.62038 47.2828 3.212 47.2373 3.77112 47.2373C4.86334 47.2373 5.95556 47.2373 7.05428 47.2373C10.2269 47.2373 13.3996 47.2373 16.5722 47.2373C19.1923 47.2373 21.8123 47.2373 24.4323 47.2373C24.8354 47.2373 25.2385 47.2373 25.6481 47.2373C26.1552 47.2373 26.6493 46.7894 26.6233 46.2635C26.5778 45.7441 26.1747 45.2962 25.6286 45.2962Z" fill="#25718A"/>
<path d="M25.6286 45.2962C24.1853 45.2962 22.742 45.2962 21.2922 45.2962C18.2691 45.2962 15.246 45.2962 12.2229 45.2962C9.58985 45.2962 6.96332 45.2962 4.33028 45.2962C3.76467 45.2962 3.19905 45.3027 2.63344 45.2962C2.56842 45.2962 2.40589 45.2832 2.56842 45.3092C2.49691 45.2962 2.43189 45.2767 2.36038 45.2573C2.22385 45.2183 2.52941 45.3741 2.32137 45.2443C2.27586 45.2118 2.22385 45.1858 2.17834 45.1599C2.21735 45.1858 2.29537 45.2832 2.18484 45.1534C2.14584 45.1144 2.10683 45.0755 2.06782 45.0365C2.19135 45.1794 2.08082 45.043 2.05482 44.9976C2.02881 44.9456 1.9768 44.7833 2.02881 44.9651C2.00281 44.8807 1.9768 44.8028 1.9638 44.7184C1.9833 44.8548 1.9768 44.7574 1.9768 44.686C1.9768 44.6405 1.9768 44.6016 1.9768 44.5561C1.9768 44.3808 1.9768 44.2055 1.9768 44.0303C1.9768 41.4399 1.9768 38.8496 1.9768 36.2592C1.9768 36.1943 1.9768 36.1294 1.9768 36.0644C1.87928 36.2917 1.78826 36.5254 1.69074 36.7526C3.9402 34.5258 6.18966 32.299 8.43912 30.0722C8.75768 29.7606 9.06975 29.449 9.38831 29.1374C8.92672 29.1374 8.47162 29.1374 8.01003 29.1374C9.00473 30.1242 9.99293 31.1045 10.9876 32.0913C12.5675 33.6559 14.1473 35.227 15.7271 36.7916C16.0912 37.1486 16.4487 37.5122 16.8128 37.8693C17.1899 38.2393 17.814 38.2393 18.1911 37.8693C18.9127 37.1486 19.6409 36.428 20.3625 35.7074C22.1049 33.9805 23.8408 32.2471 25.5831 30.5202C27.6895 28.4297 29.796 26.3328 31.9024 24.2423C33.7228 22.431 35.5431 20.6262 37.3635 18.8149C38.2412 17.9385 39.1839 17.101 40.016 16.1791C40.029 16.1662 40.042 16.1532 40.0551 16.1402C39.5935 16.1402 39.1384 16.1402 38.6768 16.1402C39.7235 17.1789 40.7702 18.2112 41.8234 19.2499C43.4878 20.8924 45.1456 22.5349 46.8099 24.1774C47.1935 24.554 47.5771 24.937 47.9607 25.3135C48.3377 25.6836 48.9684 25.6836 49.3389 25.3135C49.7095 24.9435 49.716 24.3073 49.3389 23.9372C48.2922 22.8985 47.2455 21.8662 46.1923 20.8275C44.528 19.185 42.8701 17.5425 41.2058 15.9C40.8222 15.5234 40.4386 15.1404 40.0551 14.7639C39.678 14.3938 39.0538 14.3873 38.6768 14.7639C37.9551 15.4845 37.227 16.2051 36.5053 16.9257C34.763 18.6526 33.0271 20.386 31.2848 22.1129C29.1783 24.2034 27.0719 26.3003 24.9655 28.3908C23.1451 30.2021 21.3247 32.0069 19.5044 33.8182C18.6267 34.6946 17.684 35.5321 16.8518 36.454C16.8388 36.467 16.8258 36.4799 16.8128 36.4929C17.2744 36.4929 17.7295 36.4929 18.1911 36.4929C17.1964 35.5061 16.2082 34.5258 15.2135 33.539C13.6337 31.9744 12.0539 30.4033 10.474 28.8387C10.11 28.4817 9.75239 28.1181 9.38831 27.761C9.01123 27.391 8.38711 27.391 8.01003 27.761C5.72156 30.0138 3.4331 32.286 1.14463 34.5518C0.871577 34.8245 0.579018 35.0841 0.318965 35.3698C-0.0971198 35.8242 0.0329065 36.6098 0.0329065 37.1746C0.0329065 39.1547 0.0329065 41.1283 0.0329065 43.1084C0.0329065 43.6342 0.0199039 44.1666 0.0329065 44.6924C0.0654131 46.1142 1.17064 47.2179 2.60093 47.2438C3.4266 47.2633 4.25877 47.2438 5.08443 47.2438C8.99173 47.2438 12.9055 47.2438 16.8128 47.2438C19.7059 47.2438 22.599 47.2438 25.4986 47.2438C25.5441 47.2438 25.5896 47.2438 25.6351 47.2438C26.1422 47.2438 26.6363 46.7959 26.6103 46.27C26.5778 45.7442 26.1747 45.2962 25.6286 45.2962Z" fill="#25718A"/>
<path d="M17.0143 12.2773C17.0143 12.3682 17.0143 12.4591 17.0078 12.55C17.0078 12.5954 17.0013 12.6408 16.9948 12.6863C16.9818 12.8421 17.0208 12.537 16.9948 12.6928C16.9623 12.881 16.9168 13.0628 16.8583 13.2511C16.8323 13.3355 16.7998 13.4134 16.7738 13.4978C16.8388 13.3225 16.7348 13.5757 16.7153 13.6211C16.6308 13.7899 16.5267 13.9393 16.4292 14.1016C16.4227 14.1145 16.3382 14.2249 16.4032 14.1405C16.4747 14.0496 16.3642 14.186 16.3447 14.2054C16.2862 14.2704 16.2342 14.3353 16.1757 14.3937C16.0456 14.5235 15.9091 14.6534 15.7661 14.7638C15.9091 14.6534 15.7011 14.8027 15.6491 14.8352C15.5775 14.8806 15.506 14.9261 15.428 14.965C15.35 15.004 15.2785 15.0429 15.2005 15.0819C15.1615 15.1013 15.1225 15.1208 15.0834 15.1338C15.2135 15.0754 15.1095 15.1208 15.0314 15.1468C14.8689 15.2052 14.6999 15.2507 14.5243 15.2896C14.4853 15.2961 14.2513 15.3351 14.3488 15.3221C14.4593 15.3091 14.3098 15.3221 14.3033 15.3286C14.2253 15.3351 14.1538 15.3416 14.0757 15.3416C13.8937 15.348 13.7117 15.3416 13.5296 15.3221C13.4126 15.3156 13.5491 15.3286 13.5686 15.3286C13.5231 15.3221 13.4841 15.3156 13.4386 15.3026C13.3216 15.2831 13.2111 15.2507 13.094 15.2247C13.0095 15.1987 12.925 15.1728 12.847 15.1468C12.808 15.1338 12.7625 15.1143 12.7235 15.1013C12.7365 15.1078 12.86 15.1598 12.756 15.1143C12.5739 15.0299 12.3984 14.9326 12.2294 14.8287C12.1969 14.8092 12.0148 14.6794 12.0863 14.7313C12.1579 14.7832 11.9823 14.6469 11.9563 14.6209C11.8068 14.4911 11.6703 14.3483 11.5402 14.1989C11.5142 14.1665 11.4882 14.134 11.4622 14.1016C11.4752 14.1145 11.5467 14.2184 11.4882 14.1275C11.4297 14.0431 11.3777 13.9652 11.3257 13.8808C11.2802 13.8094 11.2412 13.7315 11.2022 13.6536C11.1827 13.6147 11.1631 13.5757 11.1436 13.5368C11.1371 13.5173 11.0656 13.355 11.1046 13.4588C11.1371 13.5432 11.0591 13.329 11.0461 13.29C11.0136 13.1927 10.9876 13.0953 10.9616 12.9979C10.9421 12.9135 10.9226 12.8226 10.9096 12.7382C10.9096 12.7252 10.8836 12.5824 10.9031 12.6928C10.9161 12.8031 10.8966 12.6214 10.8966 12.6019C10.8836 12.4071 10.8771 12.2059 10.8901 12.0111C10.8966 11.9462 10.9226 11.7449 10.8966 11.9137C10.9161 11.8099 10.9356 11.7125 10.9551 11.6086C11.0006 11.4268 11.0591 11.245 11.1241 11.0698C11.0656 11.2256 11.1371 11.0438 11.1632 10.9854C11.2152 10.8815 11.2672 10.7841 11.3257 10.6867C11.3712 10.6153 11.4232 10.5439 11.4622 10.4725C11.5597 10.3232 11.3972 10.5309 11.5142 10.4011C11.6442 10.2517 11.7808 10.1024 11.9238 9.97259C11.9888 9.91416 12.0538 9.86222 12.1188 9.81028C11.9888 9.90767 12.1514 9.7973 12.1969 9.76484C12.3659 9.65447 12.5414 9.56358 12.717 9.4727C12.8795 9.3883 12.6324 9.49866 12.8015 9.44023C12.886 9.41427 12.964 9.38181 13.0485 9.35584C13.1461 9.32987 13.2436 9.3039 13.3476 9.27793C13.4061 9.26495 13.6662 9.23249 13.4841 9.24547C13.6662 9.226 13.8482 9.2195 14.0302 9.2195C14.1343 9.2195 14.2383 9.23249 14.3488 9.23898C14.4658 9.24547 14.3293 9.23249 14.3098 9.23249C14.3683 9.23898 14.4268 9.25196 14.4853 9.26495C14.6999 9.31039 14.9079 9.37531 15.116 9.44673C15.22 9.48568 15.0965 9.43374 15.0834 9.42725C15.1355 9.45322 15.1875 9.47269 15.2395 9.49866C15.3305 9.54411 15.415 9.58955 15.506 9.64149C15.6036 9.69992 15.6946 9.76484 15.7921 9.82976C15.8831 9.88819 15.7791 9.81678 15.7661 9.80379C15.8116 9.83625 15.8571 9.8752 15.8961 9.91416C16.0456 10.044 16.1887 10.1868 16.3187 10.3361C16.3577 10.3816 16.3902 10.4205 16.4292 10.466C16.3707 10.3881 16.3837 10.4011 16.4292 10.4725C16.4812 10.5569 16.5397 10.6413 16.5918 10.7257C16.6438 10.8101 16.6893 10.901 16.7348 10.9918C16.7608 11.0438 16.7868 11.0957 16.8063 11.1477C16.7673 11.0568 16.7803 11.0762 16.8063 11.1541C16.8713 11.3489 16.9298 11.5437 16.9753 11.7449C16.9883 11.8034 16.9948 11.8618 17.0078 11.9202C16.9948 11.8228 17.0013 11.8358 17.0078 11.9267C17.0078 12.0371 17.0143 12.1539 17.0143 12.2773C17.0208 12.7837 17.4564 13.2771 17.9895 13.2511C18.5161 13.2251 18.9712 12.8226 18.9647 12.2773C18.9387 10.1349 17.5995 8.27166 15.5906 7.53805C13.6792 6.8369 11.3842 7.47313 10.0969 9.04422C8.75116 10.6802 8.51711 13.0239 9.62234 14.8611C10.7276 16.6919 12.8665 17.5878 14.9534 17.1918C17.2744 16.7503 18.9322 14.6015 18.9582 12.2773C18.9647 11.7709 18.5031 11.2775 17.983 11.3035C17.4564 11.3294 17.0208 11.7319 17.0143 12.2773Z" fill="#25718A"/>
<path d="M55.6842 42.894C54.0523 40.9723 52.427 39.0442 50.7952 37.1225C49.6119 35.7267 48.4287 34.3309 47.2454 32.9286C46.5953 32.1625 45.9712 31.3705 45.295 30.6239C44.827 30.1046 44.0468 30.137 43.6047 30.6629C43.3577 30.955 43.1041 31.2536 42.8571 31.5458C41.8493 32.7338 40.8481 33.9219 39.8404 35.11C37.76 37.564 35.6796 40.0245 33.5992 42.4785C33.3131 42.8161 32.936 43.1732 32.936 43.6406C32.936 44.3352 33.5212 44.7377 34.1648 44.7377C34.4378 44.7377 34.7109 44.7377 34.984 44.7377C36.6548 44.7377 38.3256 44.7377 39.9965 44.7377C40.1265 44.7377 40.25 44.7377 40.3801 44.7377C40.055 44.4131 39.7299 44.0885 39.4049 43.7639C39.4049 45.6791 39.4049 47.5943 39.4049 49.5094C39.4049 50.4508 39.4049 51.3921 39.4049 52.3335C39.4049 52.4049 39.3984 52.4828 39.4049 52.5607C39.4439 53.1775 39.8729 53.6189 40.4971 53.6579C40.6921 53.6709 40.9002 53.6579 41.0952 53.6579C43.4097 53.6579 45.7241 53.6579 48.0386 53.6579C48.9293 53.6579 50.2816 53.8591 50.3401 52.5607C50.3726 51.8466 50.3401 51.1195 50.3401 50.4053C50.3401 48.237 50.3401 46.0686 50.3401 43.9068C50.3401 43.8613 50.3401 43.8159 50.3401 43.7704C50.015 44.095 49.6899 44.4196 49.3649 44.7442C51.1072 44.7442 52.8496 44.7442 54.5919 44.7442C54.696 44.7442 54.8 44.7507 54.904 44.7442C55.1836 44.7313 55.4696 44.6469 55.6712 44.4391C56.0547 44.0496 56.0547 43.5692 55.8467 43.0952C55.6387 42.6148 54.93 42.5045 54.5139 42.7447C54.0133 43.0368 53.9548 43.5951 54.1629 44.0756C54.1694 44.095 54.1824 44.1145 54.1889 44.134C54.1564 43.8808 54.1238 43.6341 54.0913 43.3809C54.0848 43.4004 54.0848 43.4198 54.0783 43.4393C54.1629 43.2965 54.2474 43.1537 54.3319 43.0108C54.3189 43.0238 54.3059 43.0433 54.2929 43.0563C54.4359 42.9719 54.5789 42.8875 54.722 42.8031C54.917 42.7447 54.9625 42.7901 54.774 42.7901C54.644 42.7901 54.5074 42.7901 54.3774 42.7901C53.9418 42.7901 53.5062 42.7901 53.0641 42.7901C52.0629 42.7901 51.0617 42.7901 50.0605 42.7901C49.8265 42.7901 49.5989 42.7901 49.3649 42.7901C48.8383 42.7901 48.3897 43.2381 48.3897 43.7639C48.3897 46.3348 48.3897 48.9057 48.3897 51.4765C48.3897 51.7362 48.3897 52.0024 48.3897 52.2621C48.3897 52.3335 48.3897 52.4114 48.3897 52.4828C48.3962 52.6127 48.3377 52.6256 48.4092 52.366C48.4937 52.2231 48.5782 52.0803 48.6627 51.9375C48.6497 51.9505 48.6367 51.9635 48.6237 51.9764C48.7668 51.892 48.9098 51.8076 49.0528 51.7232C49.2999 51.6583 49.3064 51.7103 49.1958 51.7038C49.1373 51.7038 49.0788 51.7038 49.0203 51.7038C48.8058 51.7038 48.5912 51.7038 48.3702 51.7038C47.681 51.7038 46.9984 51.7038 46.3093 51.7038C44.7359 51.7038 43.1691 51.7038 41.5958 51.7038C41.3357 51.7038 41.0692 51.7038 40.8091 51.7038C40.7311 51.7038 40.6531 51.7038 40.5816 51.7038C40.4581 51.7103 40.4516 51.6518 40.7051 51.7232C40.8481 51.8076 40.9912 51.892 41.1342 51.9764C41.1212 51.9635 41.1082 51.9505 41.0952 51.9375C41.1797 52.0803 41.2642 52.2231 41.3487 52.366C41.4138 52.6127 41.3618 52.6192 41.3683 52.5088C41.3683 52.4504 41.3683 52.3919 41.3683 52.3335C41.3683 52.1193 41.3683 51.905 41.3683 51.6908C41.3683 50.9832 41.3683 50.282 41.3683 49.5744C41.3683 48.0033 41.3683 46.4322 41.3683 44.8676C41.3683 44.504 41.3683 44.134 41.3683 43.7704C41.3683 43.2446 40.9197 42.7966 40.3931 42.7966C38.5402 42.7966 36.6873 42.7966 34.8344 42.7966C34.6459 42.7966 34.4508 42.7966 34.2623 42.7966C34.2103 42.7966 34.1518 42.7966 34.0998 42.7966C33.9827 42.8031 34.0218 42.7512 34.2363 42.8096C34.3793 42.894 34.5224 42.9784 34.6654 43.0628C34.6524 43.0498 34.6394 43.0303 34.6264 43.0173C34.7109 43.1602 34.7954 43.303 34.8799 43.4458C34.8734 43.4263 34.8734 43.4069 34.8669 43.3874C34.8344 43.6406 34.8019 43.8873 34.7694 44.1405C34.6914 44.3158 34.6134 44.3158 34.7174 44.1924C34.7889 44.108 34.8604 44.0236 34.9319 43.9392C35.1855 43.6406 35.4325 43.3484 35.6861 43.0498C36.5183 42.0695 37.3504 41.0892 38.1826 40.1024C40.055 37.8886 41.9339 35.6748 43.8062 33.461C44.1183 33.0909 44.4304 32.7209 44.7424 32.3573C44.827 32.2599 44.9115 32.1561 44.996 32.0587C45.087 31.9548 45.191 31.9094 44.9505 32.0652C44.7879 32.1106 44.6254 32.1561 44.4564 32.195C44.4759 32.195 44.4954 32.195 44.5214 32.195C44.3589 32.1496 44.1963 32.1041 44.0273 32.0652C43.7932 31.9158 43.8778 31.9353 43.9558 32.0327C44.0208 32.1171 44.0988 32.2015 44.1703 32.2859C44.4239 32.5845 44.6709 32.8767 44.9245 33.1753C45.7566 34.1556 46.5888 35.1359 47.421 36.1227C49.2934 38.3365 51.1722 40.5503 53.0446 42.7641C53.4737 43.2705 53.9028 43.7769 54.3319 44.2833C54.67 44.6858 55.3591 44.6339 55.7102 44.2833C56.0807 43.8743 56.0287 43.2965 55.6842 42.894Z" fill="#25718A"/>
</svg>
