<svg width="17" height="16" viewBox="0 0 17 16" fill="none" xmlns="http://www.w3.org/2000/svg">
<g clip-path="url(#clip0_2081_1569)">
<path d="M7.88086 15.876C12.1875 15.876 15.7715 12.3018 15.7715 7.99512C15.7715 3.68848 12.1777 0.114258 7.87109 0.114258C3.57422 0.114258 0 3.68848 0 7.99512C0 12.3018 3.58398 15.876 7.88086 15.876ZM7.88086 14.3916C4.33594 14.3916 1.50391 11.5498 1.50391 7.99512C1.50391 4.44043 4.32617 1.59864 7.87109 1.59864C11.4258 1.59864 14.2773 4.44043 14.2773 7.99512C14.2773 11.5498 11.4355 14.3916 7.88086 14.3916Z" fill="#EE4B2B"/>
<path d="M6.5625 12.3213H9.66797C10.0195 12.3213 10.3027 12.0674 10.3027 11.7061C10.3027 11.3643 10.0195 11.1006 9.66797 11.1006H8.80859V7.44823C8.80859 6.96972 8.57422 6.66698 8.13477 6.66698H6.70898C6.35742 6.66698 6.08398 6.93066 6.08398 7.26269C6.08398 7.62402 6.35742 7.87792 6.70898 7.87792H7.42188V11.1006H6.5625C6.21094 11.1006 5.92773 11.3643 5.92773 11.7061C5.92773 12.0674 6.21094 12.3213 6.5625 12.3213ZM7.80273 5.46581C8.41797 5.46581 8.89648 4.97754 8.89648 4.3623C8.89648 3.74706 8.41797 3.26855 7.80273 3.26855C7.19727 3.26855 6.70898 3.74706 6.70898 4.3623C6.70898 4.97754 7.19727 5.46581 7.80273 5.46581Z" fill="#EE4B2B"/>
</g>
<defs>
<clipPath id="clip0_2081_1569">
<rect width="16.1328" height="15.7715" fill="white" transform="translate(0 0.114258)"/>
</clipPath>
</defs>
</svg>
