<svg width="17" height="17" viewBox="0 0 17 17" fill="none" xmlns="http://www.w3.org/2000/svg">
<path d="M8.74805 16.376C13.0547 16.376 16.6387 12.8018 16.6387 8.49512C16.6387 4.18848 13.0449 0.614258 8.73828 0.614258C4.44141 0.614258 0.867188 4.18848 0.867188 8.49512C0.867188 12.8018 4.45117 16.376 8.74805 16.376ZM8.74805 14.8916C5.20313 14.8916 2.3711 12.0498 2.3711 8.49512C2.3711 4.94043 5.19336 2.09864 8.73828 2.09864C12.293 2.09864 15.1445 4.94043 15.1445 8.49512C15.1445 12.0498 12.3027 14.8916 8.74805 14.8916Z" fill="#25718A"/>
<path d="M7.42969 12.8213H10.5352C10.8867 12.8213 11.1699 12.5674 11.1699 12.2061C11.1699 11.8643 10.8867 11.6006 10.5352 11.6006H9.67578V7.94823C9.67578 7.46972 9.44141 7.16698 9.00196 7.16698H7.57617C7.22461 7.16698 6.95117 7.43066 6.95117 7.76269C6.95117 8.12402 7.22461 8.37792 7.57617 8.37792H8.28907V11.6006H7.42969C7.07813 11.6006 6.79492 11.8643 6.79492 12.2061C6.79492 12.5674 7.07813 12.8213 7.42969 12.8213ZM8.66992 5.96581C9.28516 5.96581 9.76367 5.47754 9.76367 4.8623C9.76367 4.24706 9.28516 3.76855 8.66992 3.76855C8.06446 3.76855 7.57617 4.24706 7.57617 4.8623C7.57617 5.47754 8.06446 5.96581 8.66992 5.96581Z" fill="#25718A"/>
</svg>
