<svg width="21" height="17" viewBox="0 0 21 17" fill="none" xmlns="http://www.w3.org/2000/svg">
<g clip-path="url(#clip0_2081_917)">
<path d="M14.1895 3.01562V6.52148H12.7734V3.03516C12.7734 2.33203 12.3926 1.93164 11.6602 1.93164H3.71094C2.96875 1.93164 2.58789 2.33203 2.58789 3.03516V14.4805C2.58789 15.1836 2.96875 15.584 3.71094 15.584H11.6602C12.3926 15.584 12.7734 15.1836 12.7734 14.4805V10.9941H14.1895V14.5C14.1895 16.1699 13.3691 16.9902 11.7285 16.9902H3.63281C1.99219 16.9902 1.18164 16.1699 1.18164 14.5V3.01562C1.18164 1.35547 1.99219 0.525391 3.63281 0.525391H11.7285C13.3691 0.525391 14.1895 1.35547 14.1895 3.01562Z" fill="#25718A"/>
<path d="M8.48633 9.45117H16.1133L17.2754 9.39258L16.8359 9.8125L15.6738 10.8867C15.5273 11.0039 15.4688 11.1797 15.4688 11.3555C15.4688 11.7168 15.7227 11.9902 16.0742 11.9902C16.2598 11.9902 16.4062 11.9121 16.5332 11.7852L18.9453 9.26562C19.1211 9.08984 19.1797 8.93359 19.1797 8.75781C19.1797 8.58203 19.1211 8.42578 18.9453 8.25L16.5332 5.73047C16.4062 5.59375 16.2598 5.52539 16.0742 5.52539C15.7227 5.52539 15.4688 5.78906 15.4688 6.15039C15.4688 6.32617 15.5273 6.51172 15.6738 6.62891L16.8359 7.70312L17.2852 8.12305L16.1133 8.06445H8.48633C8.125 8.06445 7.8125 8.38672 7.8125 8.75781C7.8125 9.12891 8.125 9.45117 8.48633 9.45117Z" fill="#25718A"/>
</g>
<defs>
<clipPath id="clip0_2081_917">
<rect width="20.7227" height="16.4746" fill="white" transform="translate(0 0.525391)"/>
</clipPath>
</defs>
</svg>
