<svg width="12" height="12" viewBox="0 0 12 12" fill="none" xmlns="http://www.w3.org/2000/svg">
<g clip-path="url(#clip0_4018_429)">
<path d="M0 5.9946C0 6.38952 0.332086 6.7216 0.726999 6.7216H5.14284V11.1374C5.14284 11.5234 5.47494 11.8644 5.86984 11.8644C6.26476 11.8644 6.58787 11.5234 6.58787 11.1374V6.7216H11.0127C11.3986 6.7216 11.7307 6.38952 11.7307 5.9946C11.7307 5.59969 11.3986 5.2676 11.0127 5.2676H6.58787V0.851755C6.58787 0.465817 6.26476 0.124756 5.86984 0.124756C5.47494 0.124756 5.14284 0.465817 5.14284 0.851755V5.2676H0.726999C0.332086 5.2676 0 5.59969 0 5.9946Z" fill="white"/>
</g>
<defs>
<clipPath id="clip0_4018_429">
<rect width="12" height="11.7486" fill="white" transform="translate(0 0.125732)"/>
</clipPath>
</defs>
</svg>
