<svg width="16" height="16" viewBox="0 0 16 16" fill="none" xmlns="http://www.w3.org/2000/svg">
<g clip-path="url(#clip0_2134_440)">
<path d="M0 7.99199C0 8.51854 0.442782 8.96132 0.969333 8.96132H6.85713V14.8491C6.85713 15.3637 7.29991 15.8184 7.82646 15.8184C8.35301 15.8184 8.78382 15.3637 8.78382 14.8491V8.96132H14.6836C15.1982 8.96132 15.6409 8.51854 15.6409 7.99199C15.6409 7.46544 15.1982 7.02265 14.6836 7.02265H8.78382V1.13486C8.78382 0.620275 8.35301 0.165527 7.82646 0.165527C7.29991 0.165527 6.85713 0.620275 6.85713 1.13486V7.02265H0.969333C0.442782 7.02265 0 7.46544 0 7.99199Z" fill="#EE4B2B"/>
</g>
<defs>
<clipPath id="clip0_2134_440">
<rect width="16" height="15.6648" fill="white" transform="translate(0 0.16748)"/>
</clipPath>
</defs>
</svg>
