<svg width="100" height="100" viewBox="0 0 100 100" fill="none" xmlns="http://www.w3.org/2000/svg">
<g clip-path="url(#clip0_2081_910)">
<path d="M71.3403 22.6999V23.2959L71.9208 23.4305C86.2439 26.7524 96.9603 39.7419 96.9603 55.2199C96.9603 73.2031 82.4787 87.8199 64.7103 87.8199C54.8243 87.8199 45.9423 83.2979 40.0277 76.1613L39.8028 75.8899H39.4503H10.0203C6.17701 75.8899 3.04027 72.7582 3.04027 68.8699V63.9499C3.04027 60.6193 5.31044 57.8472 8.36863 57.0984L9.15609 56.9056L8.9027 56.1355C8.53297 55.0118 8.53609 54.4461 8.55177 51.5962C8.55564 50.8938 8.56027 50.0525 8.56027 49.0299C8.56027 47.3214 9.17484 45.7394 10.1875 44.5188L10.5865 44.0378L10.1854 43.5585C9.16677 42.3416 8.56027 40.7614 8.56027 39.0399C8.56027 38.0804 8.55721 37.2829 8.55463 36.6121C8.54318 33.635 8.54132 33.1529 8.85972 32.0718L9.10701 31.2322L8.2394 31.1165C5.30947 30.7258 3.03027 28.1915 3.03027 25.1299V18.2099C3.03027 14.8698 5.72881 12.1699 9.02027 12.1699H65.3503C68.6417 12.1699 71.3403 14.8698 71.3403 18.2099V22.6999ZM66.4585 22.6588L67.2503 22.7029V21.9099V18.2099C67.2503 17.165 66.4232 16.2599 65.3503 16.2599H9.02027C7.96147 16.2599 7.12027 17.1607 7.12027 18.2099V25.1299C7.12027 26.1748 7.94733 27.0799 9.02027 27.0799H9.04183H9.06409H9.08704H9.11067H9.135H9.16H9.18569H9.21206H9.2391H9.26682H9.2952H9.32425H9.35397H9.38435H9.41538H9.44708H9.47942H9.51242H9.54606H9.58035H9.61527H9.65084H9.68705H9.72388H9.76135H9.79944H9.83816H9.8775H9.91746H9.95804H9.99923H10.041H10.0834H10.1264H10.1701H10.2143H10.2591H10.3045H10.3505H10.3971H10.4442H10.492H10.5403H10.5892H10.6387H10.6888H10.7394H10.7906H10.8423H10.8946H10.9475H11.0009H11.0549H11.1094H11.1645H11.2201H11.2762H11.3329H11.3901H11.4479H11.5061H11.5649H11.6243H11.6841H11.7445H11.8054H11.8668H11.9287H11.9911H12.054H12.1174H12.1813H12.2457H12.3106H12.376H12.4418H12.5082H12.575H12.6423H12.7101H12.7784H12.8471H12.9163H12.986H13.0561H13.1267H13.1977H13.2692H13.3411H13.4135H13.4864H13.5596H13.6333H13.7075H13.782H13.857H13.9325H14.0083H14.0846H14.1613H14.2384H14.3159H14.3939H14.4722H14.551H14.6301H14.7097H14.7896H14.87H14.9507H15.0318H15.1133H15.1952H15.2774H15.3601H15.4431H15.5265H15.6102H15.6943H15.7788H15.8636H15.9488H16.0344H16.1203H16.2065H16.2931H16.38H16.4673H16.5549H16.6429H16.7311H16.8197H16.9087H16.9979H17.0875H17.1774H17.2676H17.3581H17.4489H17.54H17.6314H17.7232H17.8152H17.9075H18.0001H18.093H18.1862H18.2797H18.3734H18.4675H18.5618H18.6563H18.7512H18.8463H18.9417H19.0373H19.1332H19.2293H19.3257H19.4224H19.5193H19.6164H19.7138H19.8114H19.9093H20.0073H20.1057H20.2042H20.303H20.4019H20.5011H20.6006H20.7002H20.8H20.9001H21.0003H21.1008H21.2014H21.3023H21.4033H21.5045H21.606H21.7076H21.8093H21.9113H22.0134H22.1157H22.2182H22.3209H22.4237H22.5267H22.6298H22.7331H22.8365H22.9401H23.0438H23.1477H23.2518H23.3559H23.4602H23.5647H23.6692H23.7739H23.8787H23.9837H24.0887H24.1939H24.2992H24.4046H24.5101H24.6157H24.7214H24.8273H24.9332H25.0392H25.1453H25.2515H25.3577H25.4641H25.5705H25.677H25.7836H25.8903H25.997H26.1038H26.2106H26.3176H26.4245H26.5316H26.6386H26.7458H26.8529H26.9601H27.0674H27.1747H27.282H27.3894H27.4968H27.6042H27.7116H27.8191H27.9266H28.0341H28.1416H28.2491H28.3566H28.4641H28.5716H28.6792H28.7867H28.8942H29.0017H29.1092H29.2166H29.3241H29.4315H29.5389H29.6463H29.7537H29.861H29.9682H30.0755H30.1827H30.2898H30.3969H30.504H30.611H30.7179H30.8248H30.9317H31.0384H31.1451H31.2517H31.3583H31.4648H31.5712H31.6775H31.7837H31.8899H31.9959H32.1019H32.2078H32.3136H32.4192H32.5248H32.6303H32.7356H32.8409H32.946H33.051H33.1559H33.2606H33.3653H33.4698H33.5742H33.6784H33.7825H33.8865H33.9903H34.094H34.1975H34.3009H34.4041H34.5072H34.6101H34.7128H34.8154H34.9178H35.02H35.1221H35.224H35.3257H35.4272H35.5285H35.6297H35.7306H35.8314H35.9319H36.0323H36.1325H36.2324H36.3322H36.4317H36.5311H36.6302H36.729H36.8277H36.9262H37.0244H37.1224H37.2201H37.3176H37.4149H37.5119H37.6087H37.7052H37.8015H37.8976H37.9934H38.0889H38.1841H38.2791H38.3739H38.4683H38.5625H38.6564H38.75H38.8434H38.9364H39.0292H39.1217H39.2139H39.3058H39.3974H39.4887H39.5797H39.6704H39.7608H39.8508H39.9406H40.03H40.1191H40.2079H40.2964H40.3845H40.4723H40.5598H40.6469H40.7337H40.8201H40.9062H40.9919H41.0773H41.1624H41.2471H41.3314H41.4153H41.4989H41.5821H41.665H41.7475H41.8296H41.9113H41.9926H42.0736H42.1541H42.2343H42.3141H42.3934H42.4724H42.551H42.6292H42.7069H42.7843H42.8612H42.9377H43.0138H43.0895H43.1647H43.2395H43.3139H43.3879H43.4614H43.5345H43.6071H43.6793H43.7511H43.8223H43.8932H43.9636H44.0335H44.103H44.1719H44.2405H44.3085H44.3761H44.4432H44.5098H44.576H44.6417H44.7068H44.7715H44.8357H44.8994H44.9626H45.0253H45.0875H45.1492H45.2103H45.271H45.3311H45.3908H45.4499H45.5084H45.5665H45.624H45.681H45.7374H45.7934H45.8487H45.9036H45.9578H46.0116H46.0648H46.1174H46.1694H46.221H46.2719H46.3223H46.3721H46.4213H46.47H46.518H46.5655H46.6125H46.6588H46.7045H46.7497H46.7942H46.8382H46.8815H46.9243H46.9664H47.008H47.0489H47.0892H47.1289H47.168H47.2064H47.2443H47.2814H47.318H47.3539H47.3892H47.4239H47.4579H47.4913H47.524H47.556H47.5874H47.6182H47.6483H47.6777H47.7065H47.7346H47.762H47.7888H47.8148H47.8402H47.8649H47.889H47.9123H47.935H47.9569H47.9782H47.9987H48.0186H48.0377H48.0562H48.0739H48.0909H48.1072H48.1228H48.1377H48.1518H48.1652H48.1779H48.1899H48.2011H48.2116H48.2213H48.2303H48.4344L48.6104 26.9764C53.8269 23.9091 59.9707 22.2972 66.4585 22.6588ZM31.7403 56.8999H32.5116L32.49 56.1289C32.4019 52.9887 32.7542 49.9291 33.5063 47.0281L33.7495 46.0899H32.7803H15.5403C13.9304 46.0899 12.6503 47.4216 12.6503 49.0299V53.9499C12.6503 55.566 13.9282 56.8999 15.5403 56.8999H31.7403ZM41.6785 32.4422L42.9131 31.1699H41.1403H15.5403C13.9282 31.1699 12.6503 32.5038 12.6503 34.1199V39.0399C12.6503 40.6438 13.926 41.9899 15.5403 41.9899H34.7703H35.2529L35.4528 41.5507C36.9965 38.1605 39.1172 35.0817 41.6785 32.4422ZM33.0967 61.598L32.9795 60.9899H32.3603H10.0203C8.39386 60.9899 7.12027 62.3483 7.12027 63.9499V68.8599C7.12027 70.4615 8.39371 71.8198 10.02 71.8199C10.0201 71.8199 10.0202 71.8199 10.0203 71.8199L35.68 71.8299L36.93 71.8304L36.3422 70.7272C34.8357 67.9002 33.7219 64.841 33.0967 61.598ZM36.5703 55.2199C36.5703 70.9345 49.1865 83.7399 64.7203 83.7399C80.2435 83.7399 92.8803 70.9351 92.8803 55.2199C92.8803 39.5049 80.2537 26.6999 64.7203 26.6999C49.1865 26.6999 36.5703 39.5053 36.5703 55.2199Z" fill="#EE4B2B" stroke="#FDEDEA" stroke-width="1.5"/>
<path d="M59.176 57.88H57.184L57.784 57.4V62.512L57.352 61.936L60.184 62.512V64H52.96V62.512L55.312 61.888L54.832 62.512V48.688L55.384 49.336L52.96 48.76V47.272L57.856 47.152H60.208C61.504 47.152 62.568 47.376 63.4 47.824C64.232 48.256 64.848 48.856 65.248 49.624C65.664 50.392 65.872 51.272 65.872 52.264C65.872 53.336 65.624 54.304 65.128 55.168C64.648 56.016 63.912 56.68 62.92 57.16C61.944 57.64 60.696 57.88 59.176 57.88ZM59.752 49.264H57.304L57.784 48.808V56.224L57.184 55.744H59.2C60.384 55.744 61.288 55.44 61.912 54.832C62.536 54.208 62.848 53.376 62.848 52.336C62.848 51.376 62.584 50.624 62.056 50.08C61.544 49.536 60.776 49.264 59.752 49.264ZM73.1916 57.88H71.1996L71.7996 57.4V62.512L71.3676 61.936L74.1996 62.512V64H66.9756V62.512L69.3276 61.888L68.8476 62.512V48.688L69.3996 49.336L66.9756 48.76V47.272L71.8716 47.152H74.2236C75.5196 47.152 76.5836 47.376 77.4156 47.824C78.2476 48.256 78.8636 48.856 79.2636 49.624C79.6796 50.392 79.8876 51.272 79.8876 52.264C79.8876 53.336 79.6396 54.304 79.1436 55.168C78.6636 56.016 77.9276 56.68 76.9356 57.16C75.9596 57.64 74.7116 57.88 73.1916 57.88ZM73.7676 49.264H71.3196L71.7996 48.808V56.224L71.1996 55.744H73.2156C74.3996 55.744 75.3036 55.44 75.9276 54.832C76.5516 54.208 76.8636 53.376 76.8636 52.336C76.8636 51.376 76.5996 50.624 76.0716 50.08C75.5596 49.536 74.7916 49.264 73.7676 49.264Z" fill="#EE4B2B"/>
</g>
<defs>
<clipPath id="clip0_2081_910">
<rect width="100" height="100" fill="white"/>
</clipPath>
</defs>
</svg>
