<svg width="22" height="22" viewBox="0 0 22 22" fill="none" xmlns="http://www.w3.org/2000/svg">
<path d="M6.80516 17.6175C6.41676 17.6175 6.08545 17.4807 5.81125 17.207C5.53763 16.9334 5.40082 16.6021 5.40082 16.2131V5.44355H4.53125V4.57398H8.00951V3.90442H13.2269V4.57398H16.7052V5.44355H15.8356V16.2131C15.8356 16.6131 15.7017 16.947 15.4339 17.2149C15.166 17.4827 14.8318 17.6169 14.4312 17.6175H6.80516ZM14.966 5.44355H6.27038V16.2131C6.27038 16.3691 6.32053 16.4972 6.42081 16.5975C6.5211 16.6978 6.64922 16.7479 6.80516 16.7479H14.4312C14.5646 16.7479 14.6872 16.6922 14.7991 16.5809C14.911 16.4696 14.9666 16.347 14.966 16.2131V5.44355ZM8.71212 15.0088H9.58168V7.18268H8.71212V15.0088ZM11.6547 15.0088H12.5243V7.18268H11.6547V15.0088Z" fill="#3D3D3D"/>
</svg>
