<svg width="32" height="32" viewBox="0 0 32 32" fill="none" xmlns="http://www.w3.org/2000/svg">
<path d="M26.6667 13.3333V9.33333C26.6667 7.91885 26.1048 6.56229 25.1046 5.5621C24.1044 4.5619 22.7478 4 21.3333 4H16" stroke="#3D3D3D" stroke-width="2" stroke-linecap="round" stroke-linejoin="round"/>
<path d="M29.9998 10L26.6665 13.3333L23.3332 10M18.6665 22.6667V14.6667C18.6665 14.313 18.526 13.9739 18.276 13.7239C18.0259 13.4738 17.6868 13.3333 17.3332 13.3333H9.33317M2.6665 13.3333H5.33317M18.6665 29.3333V26.6667M5.33317 10.6667V25.3333C5.33317 25.687 5.47365 26.0261 5.72369 26.2761C5.97374 26.5262 6.31288 26.6667 6.6665 26.6667H21.3332" stroke="#3D3D3D" stroke-width="2" stroke-linecap="round" stroke-linejoin="round"/>
</svg>
