<svg width="10" height="12" viewBox="0 0 10 12" fill="none" xmlns="http://www.w3.org/2000/svg">
<g clip-path="url(#clip0_2081_1518)">
<path d="M4.83904 12.0001C4.91957 12.0001 5.066 11.9708 5.22708 11.8829C8.51442 10.0819 9.67859 9.26182 9.67859 7.09466V2.6871C9.67859 2.08674 9.39302 1.9037 8.93907 1.70602C8.34603 1.44977 5.92262 0.593154 5.32958 0.388151C5.17583 0.3369 5.00743 0.300293 4.83904 0.300293C4.67064 0.300293 4.49492 0.351543 4.34849 0.388151C3.75545 0.534582 1.33203 1.45709 0.738985 1.70602C0.285051 1.89639 -0.000488281 2.08674 -0.000488281 2.6871V7.09466C-0.000488281 9.26182 1.16363 10.0745 4.451 11.8829C4.61207 11.9708 4.7585 12.0001 4.83904 12.0001ZM4.83904 10.7994C4.75118 10.7994 4.66332 10.7774 4.46564 10.6676C1.82257 9.08609 1.03917 8.61751 1.03917 6.83841V2.88479C1.03917 2.75301 1.06845 2.69443 1.1856 2.64318C2.12275 2.2771 3.7042 1.77192 4.64136 1.39852C4.71457 1.36923 4.78046 1.36192 4.83904 1.36192C4.89761 1.36192 4.9635 1.36923 5.03672 1.39852C5.96655 1.77192 7.52606 2.32103 8.48518 2.64318C8.60964 2.6871 8.6316 2.75301 8.6316 2.88479V6.83841C8.6316 8.61751 7.84822 9.08609 5.20511 10.6676C5.01475 10.7774 4.9269 10.7994 4.83904 10.7994Z" fill="black" fill-opacity="0.85"/>
</g>
<defs>
<clipPath id="clip0_2081_1518">
<rect width="9.94996" height="12" fill="white"/>
</clipPath>
</defs>
</svg>
