<svg width="16" height="16" viewBox="0 0 16 16" fill="none" xmlns="http://www.w3.org/2000/svg">
<path d="M6.95148 1.41798C7.34937 0.500404 8.65063 0.500404 9.04852 1.41798L10.4471 4.64332C10.6127 5.02521 10.9729 5.28686 11.3872 5.32634L14.8869 5.65983C15.8825 5.7547 16.2847 6.99226 15.5349 7.65423L12.8997 9.98108C12.5876 10.2566 12.4501 10.6799 12.5406 11.0862L13.3049 14.5177C13.5223 15.4939 12.4696 16.2587 11.6083 15.7503L8.58102 13.963C8.22258 13.7514 7.77742 13.7514 7.41898 13.963L4.39167 15.7503C3.53043 16.2587 2.47769 15.4939 2.69513 14.5177L3.45943 11.0862C3.54993 10.6799 3.41237 10.2566 3.10034 9.98108L0.465061 7.65423C-0.284651 6.99226 0.117458 5.7547 1.11308 5.65983L4.61275 5.32634C5.02713 5.28686 5.38726 5.02521 5.55286 4.64332L6.95148 1.41798Z" fill="#FFCC00"/>
</svg>
