<svg width="12" height="14" viewBox="0 0 12 14" fill="none" xmlns="http://www.w3.org/2000/svg">
<path d="M5.21429 0.714355C4.35 0.714355 3.64286 1.4215 3.64286 2.28578H2.07143C1.20714 2.28578 0.5 2.99293 0.5 3.85721H11.5C11.5 2.99293 10.7929 2.28578 9.92857 2.28578H8.35714C8.35714 1.4215 7.65 0.714355 6.78571 0.714355H5.21429ZM2.07143 5.42864V12.9872C2.07143 13.1601 2.19714 13.2858 2.37 13.2858H9.64571C9.81857 13.2858 9.94429 13.1601 9.94429 12.9872V5.42864H8.37286V10.9286C8.37286 11.3686 8.02714 11.7144 7.58714 11.7144C7.14714 11.7144 6.80143 11.3686 6.80143 10.9286V5.42864H5.23V10.9286C5.23 11.3686 4.88429 11.7144 4.44429 11.7144C4.00429 11.7144 3.65857 11.3686 3.65857 10.9286V5.42864H2.08714H2.07143Z" fill="#486F85"/>
</svg>
